<?xml version="1.0" encoding="UTF-8"?>
<svg width="300px" height="300px" viewBox="0 0 300 300" version="1.1" xmlns="http://www.w3.org/2000/svg" xmlns:xlink="http://www.w3.org/1999/xlink">
    <title>v2</title>
    <g id="v2" stroke="none" stroke-width="1" fill="none" fill-rule="evenodd">
        <path d="M95.702196,183.084765 L127.754686,183.084765 L127.754686,183.084765 L127.754686,159.661281 L95.336197,159.661281 L95.336197,128.773015 L165.485004,128.773015 L193.568295,163.606736 L250.883246,62.7298578 L299.796109,237.311798 L255.504994,211.065671 L239.75114,155.682009 L193.568295,237.311798 L165.485004,188.688894 L165.485004,225.011097 C137.274481,225.011097 109.063958,225.011097 80.8534342,225.011097 C36.0867097,225.011097 -0.203890931,188.720497 -0.203890931,143.953772 L-0.203890931,143.953772 L-0.203890931,143.953772 C-0.203890931,99.0950429 36.1612942,62.7298578 81.0200234,62.7298578 L204.940922,62.7298578 L204.940922,62.7298578 L181.096361,105.221411 L95.54125,105.221411 C80.4368834,105.221411 66.2349012,112.412731 57.2954007,124.587592 C48.8252096,136.123291 48.7869504,151.812202 57.2007789,163.389075 L57.2954007,163.519269 C66.2290498,175.811381 80.5066009,183.084765 95.702196,183.084765 Z" id="Rectangle" fill="#B8A3E0" fill-rule="nonzero"></path>
    </g>
</svg>