<?xml version="1.0" encoding="UTF-8"?>
<svg width="152px" height="152px" viewBox="0 0 152 152" version="1.1" xmlns="http://www.w3.org/2000/svg" xmlns:xlink="http://www.w3.org/1999/xlink">
    <title>Sprite1</title>
    <defs>
        <circle id="path-1" cx="75.9903911" cy="75.9893424" r="75.9116328"></circle>
        <circle id="path-3" cx="75.9903911" cy="75.9893424" r="75.9116328"></circle>
        <circle id="path-5" cx="75.9903911" cy="75.9893424" r="75.9116328"></circle>
        <circle id="path-7" cx="75.9903911" cy="75.9893424" r="75.9116328"></circle>
        <circle id="path-9" cx="75.9903911" cy="75.9893424" r="75.9116328"></circle>
    </defs>
    <g id="Sprite1" stroke="none" stroke-width="1" fill="none" fill-rule="evenodd">
        <g id="Group-Clipped">
            <mask id="mask-2" fill="white">
                <use xlink:href="#path-1"></use>
            </mask>
            <g id="path-1"></g>
            <g id="Group" mask="url(#mask-2)">
                <g transform="translate(32.948875, 42.429448)">
                    <g transform="translate(0.042608, 0.093438)">
                        <path d="M79.3533505,80.190504 C74.4600883,70.927284 42.9989082,65.1143066 42.9989082,65.1143066 C42.9989082,65.1143066 11.5377281,70.927284 6.64446589,80.190504 C3.0274789,93.0455422 0.0019620748,109.379138 0.0019620748,109.379138 L42.9989082,109.379138 L85.9958543,109.379138 C85.9958543,109.379138 83.9519263,91.865748 79.3533505,80.190504 Z" id="Path" fill="#F1C9A5" fill-rule="nonzero"></path>
                        <path d="M42.9989082,65.1143066 C42.9989082,65.1143066 74.4600883,70.927284 79.3533505,80.190504 C83.9529751,91.865748 85.9958543,109.379138 85.9958543,109.379138 L42.9989082,109.379138 L42.9989082,65.1143066 Z" id="Path" fill="#F1C9A5" fill-rule="nonzero"></path>
                        <rect id="Rectangle" fill="#F1C9A5" fill-rule="nonzero" x="34.4341263" y="46.2816442" width="17.1295638" height="28.6674274"></rect>
                        <rect id="Rectangle" fill="#F1C9A5" fill-rule="nonzero" x="42.9989082" y="46.2816442" width="8.56478194" height="28.6674274"></rect>
                        <path d="M34.4341263,59.565603 C35.9746754,63.9879962 42.1914047,66.5227187 46.7574705,66.5227187 C48.4091826,66.5227187 50.0158,66.2458604 51.5636902,65.7393353 L51.5636902,46.2816442 L34.4341263,46.2816442 L34.4341263,59.565603 Z" id="Path" fill="#DDAC8C" fill-rule="nonzero" opacity="0.1"></path>
                        <path d="M65.0217343,28.1925143 C65.0217343,10.286908 55.1618004,0.105021395 42.9989082,0.105021395 C30.836016,0.105021395 20.9760822,10.286908 20.9760822,28.1925143 C20.9760822,52.2770964 30.836016,60.6153578 42.9989082,60.6153578 C55.1607518,60.6153578 65.0217343,51.2734847 65.0217343,28.1925143 Z" id="Path" fill="#F1C9A5" fill-rule="nonzero"></path>
                        <path d="M61.6690211,40.6091933 C57.6765974,40.1907597 54.9814231,35.8900164 55.6578384,31.0072412 C56.3258641,26.1202712 60.1064493,22.4917485 64.1009705,22.907036 C68.0912967,23.3223236 70.7822764,27.6220182 70.1090072,32.5089882 C69.4388839,37.3970068 65.6614449,41.0223835 61.6690211,40.6091933 Z" id="Path" fill="#F1C9A5" fill-rule="nonzero"></path>
                        <path d="M16.0450665,32.510037 C15.3707486,27.6230669 18.0627769,23.3233724 22.0510059,22.9080847 C26.0476244,22.4917485 29.8282096,26.1202712 30.4983327,31.0082899 C31.1716019,35.8910651 28.47433,40.1928571 24.4850524,40.6102421 C20.49158,41.0223835 16.714141,37.3970068 16.0450665,32.510037 Z" id="Path" fill="#F1C9A5" fill-rule="nonzero"></path>
                        <path d="M65.0217343,28.1925143 C65.0217343,10.286908 55.1618004,0.105021395 42.9989082,0.105021395 L42.9989082,60.6153578 C55.1607518,60.6153578 65.0217343,51.2734847 65.0217343,28.1925143 Z" id="Path" fill="#F1C9A5" fill-rule="nonzero"></path>
                    </g>
                </g>
            </g>
        </g>
        <g id="Path-Clipped" transform="translate(32.000000, 110.000000)" fill="#212121" fill-rule="nonzero">
            <path d="M80.3448335,12.7133897 C77.4860608,7.30416403 65.5769555,3.07473279 56.1564294,0.489672524 L43.9903911,14.3955141 L31.8243527,0.489672524 C22.4038268,3.07473279 10.4936727,7.30416403 7.6359488,12.7133897 C4.01896178,25.5684279 0.993444982,41.9020239 0.993444982,41.9020239 L43.9903911,41.9020239 L86.9873373,41.9020239 C86.9873373,41.9020239 84.9434093,24.3886336 80.3448335,12.7133897 Z" id="Path"></path>
        </g>
        <g id="Path-Clipped">
            <mask id="mask-4" fill="white">
                <use xlink:href="#path-3"></use>
            </mask>
            <g id="path-1"></g>
            <path d="M57.5111426,79.2864741 C57.5111426,79.2864741 73.0686962,68.6693745 74.8997368,62.8134001 C74.7162133,68.1209013 74.8997368,72.8799291 74.8997368,72.8799291 C74.8997368,72.8799291 90.0923407,57.8718975 88.6272985,45.6083295 C71.4222278,36.4552235 58.0606645,47.072323 54.9481051,52.0138257 C51.8355457,56.9553285 51.1035489,70.6839388 57.5111426,79.2864741 Z" id="Path" fill="#D9B380" fill-rule="nonzero" mask="url(#mask-4)"></path>
        </g>
        <g id="Path-Clipped">
            <mask id="mask-6" fill="white">
                <use xlink:href="#path-5"></use>
            </mask>
            <g id="path-1"></g>
            <path d="M86.4302594,50.5487835 C86.4302594,50.5487835 93.5698499,59.1534162 95.0338435,76.3584869 C100.15887,68.852898 105.649894,47.0712744 88.6272985,45.6083295 C87.1622561,48.352793 86.4302594,50.5487835 86.4302594,50.5487835 Z" id="Path" fill="#D9B380" fill-rule="nonzero" mask="url(#mask-6)"></path>
        </g>
        <g id="Path-Clipped">
            <mask id="mask-8" fill="white">
                <use xlink:href="#path-7"></use>
            </mask>
            <g id="path-1"></g>
            <path d="M91.7188837,127.319306 L82.1997793,118.471374 L75.9746604,124.394465 L86.3201452,109.62449 C86.3201452,109.62449 89.6938325,109.997829 90.8935521,113.672495 C91.2689889,119.447719 91.7188837,127.319306 91.7188837,127.319306 Z" id="Path" fill="#FFFFFF" fill-rule="nonzero" mask="url(#mask-8)"></path>
        </g>
        <g id="Path-Clipped">
            <mask id="mask-10" fill="white">
                <use xlink:href="#path-9"></use>
            </mask>
            <g id="path-1"></g>
            <path d="M60.2304372,127.319306 L69.7495416,118.471374 L75.9746604,124.394465 L65.6291758,109.62449 C65.6291758,109.62449 62.2554886,109.997829 61.0557689,113.672495 C60.6803322,119.447719 60.2304372,127.319306 60.2304372,127.319306 Z" id="Path" fill="#FFFFFF" fill-rule="nonzero" mask="url(#mask-10)"></path>
        </g>
    </g>
</svg>